Coordinates
version=1
nRows=26
nColumns=24
inDegrees=yes

Units are S.I. units (second, meters, Newtons, ...)
Angles are in degrees.

endheader
time	pelvis_tilt	pelvis_list	pelvis_rotation	pelvis_tx	pelvis_ty	pelvis_tz	hip_flexion_r	hip_adduction_r	hip_rotation_r	knee_angle_r	ankle_angle_r	subtalar_angle_r	mtp_angle_r	hip_flexion_l	hip_adduction_l	hip_rotation_l	knee_angle_l	ankle_angle_l	subtalar_angle_l	mtp_angle_l	lumbar_extension	lumbar_bending	lumbar_rotation
      1.49000000	     14.56929507	     -2.21407612	     -0.71189170	     -0.00358630	      0.93985912	      0.33773147	    -24.73227345	      5.87391576	     -0.40783760	     -4.69951690	     21.66542623	      5.88402021	     13.08986625	     14.42593130	     -2.33104270	     -9.55822412	    -32.14469830	     18.08347051	      0.97724097	     42.44795645	    -33.13321283	      2.95677793	      8.20358492
      1.49500000	     14.67388479	     -2.20781214	     -0.79559872	      0.00326688	      0.93915404	      0.33769189	    -25.34747474	      5.80290350	     -0.39247630	     -4.65827673	     21.92549361	      6.04788199	     13.04755400	     14.09951704	     -2.14934798	     -9.73610049	    -29.67239625	     17.35159501	      1.50333903	     42.08506486	    -33.24500079	      2.89049531	      8.37707937
      1.50000000	     14.76442743	     -2.15233116	     -1.00166284	      0.01027688	      0.93840276	      0.33789367	    -25.92549777	      5.62589918	     -0.36879233	     -4.66575193	     22.17188417	      6.48173854	     13.12311901	     13.70999349	     -1.95193458	    -10.07430042	    -27.14809875	     16.67139645	      2.21534872	     41.78040049	    -33.32856152	      2.70890132	      8.58367231
      1.50500000	     14.79739808	     -2.16749370	     -1.26910444	      0.01725044	      0.93766301	      0.33809531	    -26.41989666	      5.48477937	     -0.16808277	     -4.71646635	     22.40334873	      6.79975163	     13.23283752	     13.36822918	     -1.82783249	    -10.46516402	    -24.66047374	     15.94920062	      2.92254530	     41.57545511	    -33.37343794	      2.57089921	      8.98702418
      1.51000000	     14.86964155	     -2.14434172	     -1.49958214	      0.02433960	      0.93687152	      0.33814418	    -26.96943778	      5.31316203	     -0.04607262	     -4.75822525	     22.60017929	      7.02173587	     13.38519016	     12.96728222	     -1.63655862	    -10.79537267	    -22.17276604	     15.29374319	      3.55602381	     41.37374719	    -33.43871649	      2.43916926	      9.23982023
      1.51500000	     14.96793648	     -2.13322097	     -1.68304134	      0.03149258	      0.93607203	      0.33817818	    -27.57728353	      5.16613129	      0.01691502	     -4.73931978	     22.75038572	      7.26882041	     13.53415143	     12.54272659	     -1.44950563	    -11.07555251	    -19.77573550	     14.76140755	      4.19920711	     41.15579669	    -33.51989321	      2.32400484	      9.37847422
      1.52000000	     14.97515483	     -2.16239141	     -1.77322073	      0.03855731	      0.93510035	      0.33796451	    -28.02605662	      5.09172173	     -0.05549005	     -4.84399719	     22.95710318	      7.60865416	     13.67180280	     12.25056145	     -1.27427825	    -11.25748531	    -17.47333930	     14.32853306	      4.80543945	     40.92397582	    -33.51716055	      2.30376573	      9.55993966
      1.52500000	     14.91693692	     -2.23667086	     -1.89189705	      0.04578061	      0.93408900	      0.33790132	    -28.40570436	      5.05934994	     -0.05304124	     -4.95354942	     23.12619613	      7.75878613	     13.81202958	     11.99677702	     -1.15797469	    -11.44349262	    -15.22726102	     13.88337010	      5.39221032	     40.64149835	    -33.42923417	      2.30259180	      9.80871166
      1.53000000	     14.85919193	     -2.26739367	     -2.05248334	      0.05304369	      0.93307717	      0.33777845	    -28.80523516	      4.95355523	      0.04175778	     -5.02845521	     23.28806981	      7.96446579	     13.94889650	     11.73262295	     -0.98655195	    -11.67086523	    -13.06877427	     13.40037555	      5.78056855	     40.47817852	    -33.34112746	      2.27270371	     10.01392139
      1.53500000	     14.97155036	     -2.31227175	     -2.10611416	      0.06025951	      0.93215850	      0.33760021	    -29.41273663	      4.90228952	      0.02504124	     -5.04586272	     23.34593005	      8.25834714	     14.33821791	     11.32391396	     -0.82428251	    -11.86577010	    -11.09263099	     13.09277503	      6.42613496	     40.31240093	    -33.43615793	      2.27432873	     10.11825742
      1.54000000	     14.95001295	     -2.38731570	     -2.17114743	      0.06757652	      0.93105268	      0.33740180	    -29.83325365	      4.88528341	     -0.00558662	     -5.15398387	     23.20672650	      8.38644987	     16.27998390	     11.12408185	     -0.71206578	    -12.07310451	     -9.40462837	     12.92715092	      7.10739718	     39.28715686	    -33.37090359	      2.30907001	     10.24348777
      1.54500000	     14.92530850	     -2.46781934	     -2.26816167	      0.07494833	      0.92999762	      0.33718547	    -30.25236987	      4.85397432	      0.09835528	     -5.28967085	     23.49014461	      8.60983288	     16.40616381	     10.93315151	     -0.60786761	    -12.35206678	     -7.87450086	     12.81997447	      7.70219681	     39.18968439	    -33.31820125	      2.32693633	     10.44361525
      1.55000000	     14.84212703	     -2.57484085	     -2.30312705	      0.08231933	      0.92884579	      0.33696495	    -30.53386195	      4.88558608	     -0.00672521	     -5.56690888	     23.69156138	      8.96177690	     16.60952441	     10.91972860	     -0.56313174	    -12.67703650	     -6.72638188	     12.83494339	      8.59301929	     39.06651023	    -33.19291576	      2.40345941	     10.56155143
      1.55500000	     14.70563873	     -2.69811178	     -2.31015855	      0.08963997	      0.92760820	      0.33666975	    -30.73227372	      4.93552020	     -0.10788463	     -5.88382243	     23.91636707	      9.34613415	     16.83925116	     11.02424754	     -0.53375072	    -12.99594557	     -5.86222570	     12.97643665	      9.52978464	     38.97017647	    -33.01047291	      2.52453305	     10.64604279
      1.56000000	     14.68523387	     -2.76016314	     -2.31891557	      0.09713683	      0.92648320	      0.33644892	    -31.12150935	      4.91300570	     -0.21803284	     -6.09012573	     24.05837733	      9.74872334	     17.20191916	     11.02327881	     -0.45531282	    -13.42630901	     -5.22955249	     13.22946755	     10.59477294	     38.81783795	    -32.92748249	      2.56860415	     10.70038130
      1.56500000	     14.64013752	     -2.86694969	     -2.31466245	      0.10463930	      0.92539277	      0.33630090	    -31.48866328	      4.95968196	     -0.08746535	     -6.24943675	     23.79618798	      9.66219761	     19.41171479	     11.13282855	     -0.45985393	    -13.92542532	     -4.96028437	     13.56683592	     11.78305662	     37.72192574	    -32.82925594	      2.65414873	     10.72544106
      1.57000000	     14.47505455	     -2.96116862	     -2.37640089	      0.11236888	      0.92411524	      0.33606472	    -31.60785973	      4.94248107	     -0.20846279	     -6.71003359	     23.93690675	     10.13672161	     19.61731066	     11.38071981	     -0.46214617	    -14.37500146	     -4.91303258	     13.86747465	     12.55041184	     37.80736026	    -32.57323793	      2.70436233	     10.87210513
      1.57500000	     14.47553735	     -3.04341007	     -2.41174031	      0.12017969	      0.92307654	      0.33594134	    -31.97055863	      4.91928478	     -0.22800279	     -7.03974325	     23.82834228	     10.45976996	     20.47835305	     11.50140603	     -0.47574470	    -14.80869784	     -5.17400755	     14.18477529	     13.25090460	     37.72368308	    -32.50774799	      2.73637462	     10.97866155
      1.58000000	     14.40128670	     -3.13176382	     -2.39079884	      0.12789656	      0.92195226	      0.33582896	    -32.19079672	      4.93951081	     -0.30902775	     -7.47959337	     23.84540728	     10.83209815	     20.75102550	     11.76405595	     -0.51043521	    -14.85017864	     -5.68179692	     14.47468532	     13.44469810	     37.69349004	    -32.34794679	      2.79677303	     10.97630201
      1.58500000	     14.40901457	     -3.15452093	     -2.40958473	      0.13578123	      0.92094986	      0.33576357	    -32.51794627	      4.86069517	     -0.34622332	     -7.87088350	     23.57858352	     11.03801428	     23.13649409	     11.88428729	     -0.47444307	    -14.71174364	     -6.26901169	     14.76021313	     13.42633210	     36.90335162	    -32.26238447	      2.77198586	     10.94948636
      1.59000000	     14.43437420	     -3.11639834	     -2.55423421	      0.14370567	      0.92007392	      0.33575364	    -32.78082951	      4.63930458	     -0.43137077	     -8.45082017	     23.62767240	     11.51352193	     23.39065409	     11.98030509	     -0.39389490	    -14.66038176	     -7.01473717	     14.93841140	     13.19146817	     36.87126056	    -32.19734643	      2.61597333	     10.98364545
      1.59500000	     14.46971570	     -3.05161772	     -2.65939446	      0.15169641	      0.91920056	      0.33563604	    -33.00469903	      4.39472068	     -0.62783110	     -9.12626896	     23.69682886	     12.14877707	     23.76385492	     12.08868004	     -0.29513372	    -14.58639694	     -7.94401976	     15.11569662	     13.12388554	     36.86478895	    -32.13971202	      2.45858933	     10.99538731
      1.60000000	     14.60825887	     -2.90674464	     -2.69148012	      0.15983827	      0.91839629	      0.33542576	    -33.36929467	      4.10081219	     -0.90744553	     -9.74048688	     23.51574578	     12.71873567	     25.71647248	     12.06691310	     -0.09135147	    -14.37778770	     -8.92686836	     15.39085227	     12.95734240	     36.37153409	    -32.15769751	      2.26936035	     10.84058706
      1.60500000	     14.53302918	     -2.85861541	     -2.80689913	      0.16794525	      0.91737881	      0.33537254	    -33.44278287	      3.86919716	     -0.95764739	    -10.47117255	     23.53371077	     13.23715166	     26.02874782	     12.33134303	     -0.04796630	    -14.20655881	    -10.15903231	     15.74048773	     12.91788301	     36.32588107	    -31.95880147	      2.13119970	     10.91967106
      1.61000000	     14.61659386	     -2.71152709	     -2.85442432	      0.17611006	      0.91652755	      0.33527070	    -33.69848812	      3.56817111	     -1.16083113	    -11.16103768	     23.25330767	     13.72428338	     28.17991833	     12.31874648	      0.16081046	    -13.73808015	    -11.24857756	     15.95281080	     12.63735536	     35.78815785	    -31.92256009	      1.91019346	     10.82798884
      1.61500000	     14.63284853	     -2.66797445	     -3.06255174	      0.18431013	      0.91561948	      0.33548681	    -33.82165547	      3.30045603	     -1.03904246	    -11.99157720	     23.16017782	     14.16896537	     28.46308742	     12.36743977	      0.20427654	    -13.50889141	    -12.44399806	     16.11276458	     12.65916388	     35.81037771	    -31.82778171	      1.70183899	     10.91544761
